<svg width="512" height="512" viewBox="0 0 200 200" fill="none" xmlns="http://www.w3.org/2000/svg">
  <rect width="200" height="200" rx="40" fill="url(#bg)" />
  <g opacity="0.15">
    <line x1="100" y1="40" x2="100" y2="160" stroke="#1e293b" strokeWidth="1" />
    <line x1="40" y1="100" x2="160" y2="100" stroke="#1e293b" strokeWidth="1" />
    <line x1="70" y1="40" x2="70" y2="160" stroke="#1e293b" strokeWidth="0.5" />
    <line x1="130" y1="40" x2="130" y2="160" stroke="#1e293b" strokeWidth="0.5" />
    <line x1="40" y1="70" x2="160" y2="70" stroke="#1e293b" strokeWidth="0.5" />
    <line x1="40" y1="130" x2="160" y2="130" stroke="#1e293b" strokeWidth="0.5" />
  </g>
  <rect x="55" y="55" width="35" height="35" rx="6" fill="#ffffff" opacity="0.96" />
  <rect x="110" y="55" width="35" height="35" rx="6" fill="#ffffff" opacity="0.92" />
  <rect x="55" y="110" width="35" height="35" rx="6" fill="#ffffff" opacity="0.88" />
  <rect x="110" y="110" width="35" height="35" rx="6" fill="#ffffff" opacity="0.84" />
  <line x1="52" y1="100" x2="58" y2="100" stroke="#10b981" strokeWidth="2" strokeLinecap="round" />
  <line x1="142" y1="100" x2="148" y2="100" stroke="#10b981" strokeWidth="2" strokeLinecap="round" />
  <line x1="100" y1="52" x2="100" y2="58" stroke="#10b981" strokeWidth="2" strokeLinecap="round" />
  <line x1="100" y1="142" x2="100" y2="148" stroke="#10b981" strokeWidth="2" strokeLinecap="round" />
  <defs>
    <linearGradient id="bg" x1="0" y1="0" x2="200" y2="200" gradientUnits="userSpaceOnUse">
      <stop stopColor="#fda4af" />
      <stop offset="1" stopColor="#ec4899" />
    </linearGradient>
  </defs>
</svg>
